<?xml version="1.0" encoding="UTF-8"?>
<svg version="1.1" xmlns="http://www.w3.org/2000/svg" width="1200" height="1200">
<path d="M0 0 C396 0 792 0 1200 0 C1200 396 1200 792 1200 1200 C804 1200 408 1200 0 1200 C0 804 0 408 0 0 Z " fill="#FEFEFE" transform="translate(0,0)"/>
<path d="M0 0 C396 0 792 0 1200 0 C1200 396 1200 792 1200 1200 C804 1200 408 1200 0 1200 C0 804 0 408 0 0 Z M225.5 155.625 C224.80551758 155.87733398 224.11103516 156.12966797 223.39550781 156.38964844 C194.19403912 167.48699827 171.62881256 189.99830781 158.80029297 218.18701172 C152.56361922 232.31560819 149.84624198 246.37808528 149.86298561 261.73204136 C149.86033378 262.91538873 149.85768196 264.09873609 149.85494977 265.31794247 C149.84860771 268.60426354 149.84672048 271.89055232 149.846727 275.1768784 C149.84565508 278.75179584 149.83886121 282.32670322 149.8328203 285.90161508 C149.82175922 292.99306572 149.81609967 300.08451142 149.81211142 307.17596916 C149.80709716 315.67028972 149.79636874 324.16460071 149.78562968 332.65891561 C149.76001189 353.19231683 149.7449654 373.72572176 149.73211922 394.25913436 C149.72786299 401.06225889 149.72329722 407.86538315 149.7185359 414.66850734 C149.69327207 450.859353 149.67122914 487.05019913 149.65880775 523.24105167 C149.65588654 531.6246497 149.65291899 540.00824771 149.64990234 548.3918457 C149.64953143 549.43337868 149.64916053 550.47491167 149.64877838 551.54800625 C149.63662937 585.29874194 149.60569567 619.0494254 149.56398082 652.80013656 C149.52115601 687.51235271 149.49456197 722.22454128 149.48933304 756.93678455 C149.48859264 761.84381158 149.48768197 766.75083855 149.48667526 771.65786552 C149.48648465 772.62356205 149.48629403 773.58925858 149.48609764 774.58421864 C149.48258977 790.09936373 149.46231816 805.61444324 149.43587863 821.12956428 C149.40968014 836.73920037 149.40202928 852.348761 149.41297992 867.95841593 C149.41893808 877.22098954 149.41114371 886.48330641 149.38314908 895.74584095 C149.36579912 901.94783533 149.36692815 908.14965615 149.38251677 914.35165455 C149.39086586 917.87592899 149.39173777 921.39971629 149.36990531 924.923944 C149.193949 959.70056818 157.26200236 989.04414565 181 1015 C182.09248047 1016.21623047 182.09248047 1016.21623047 183.20703125 1017.45703125 C200.24444535 1035.50594303 227.55800313 1049.16352878 252.5199243 1050.09392409 C255.59194473 1050.13325917 258.66256002 1050.14036386 261.73483467 1050.13701439 C262.91848163 1050.13966622 264.1021286 1050.14231804 265.32164365 1050.14505023 C268.60879811 1050.1513923 271.89592029 1050.15327952 275.18307976 1050.153273 C278.75888581 1050.15434492 282.33468181 1050.16113877 285.91048229 1050.1671797 C293.0036629 1050.17824076 300.09683856 1050.18390032 307.19002628 1050.18788858 C315.68636932 1050.19290283 324.18270279 1050.20363122 332.67904018 1050.21437032 C353.21690168 1050.23998772 373.75476691 1050.25503433 394.29263979 1050.26788078 C401.09696969 1050.27213695 407.90129931 1050.27670271 414.70562887 1050.2814641 C450.90137142 1050.30672731 487.09711442 1050.32877067 523.29286385 1050.34119225 C531.6775017 1050.34411347 540.06213953 1050.34708101 548.44677734 1050.35009766 C550.00927296 1050.35065402 550.00927296 1050.35065402 551.60333413 1050.35122162 C585.36105959 1050.36337161 619.11873284 1050.39430706 652.87643378 1050.43601918 C687.59452252 1050.47883958 722.31258369 1050.50543745 757.03069955 1050.51066696 C761.93804732 1050.51140736 766.84539504 1050.51231804 771.75274277 1050.51332474 C772.71850672 1050.51351535 773.68427067 1050.51370597 774.67930019 1050.51390236 C790.19836209 1050.51741085 805.71735845 1050.53768528 821.23639631 1050.56412137 C836.84825552 1050.59031369 852.46003928 1050.5979733 868.07191731 1050.58702008 C877.33692292 1050.58105987 886.60167191 1050.58886722 895.86663849 1050.61685092 C902.06897766 1050.6341913 908.2711432 1050.63307979 914.47348637 1050.61748323 C917.99877788 1050.60912818 921.52358224 1050.60828408 925.04882719 1050.63009469 C959.74647146 1050.8054649 989.14574703 1042.63212754 1015 1019 C1015.74894531 1018.32195313 1016.49789062 1017.64390625 1017.26953125 1016.9453125 C1038.10503403 997.13720138 1049.66933288 968.45670932 1050.56798145 939.95830626 C1050.65672947 934.28671162 1050.66221665 928.61782709 1050.62993505 922.94571918 C1050.61522617 919.36166913 1050.63004421 915.77770678 1050.64082003 912.19365925 C1050.65568986 905.93455078 1050.65229372 899.67566788 1050.63640213 893.41656494 C1050.61283633 884.10899273 1050.61822633 874.80158815 1050.62911103 865.49400044 C1050.6476369 848.86629507 1050.63803681 832.23869734 1050.61663339 815.6110008 C1050.5980412 801.06378371 1050.58965757 786.51660268 1050.59120178 771.9693737 C1050.59129346 771.0026201 1050.59138513 770.0358665 1050.59147959 769.03981733 C1050.59187277 765.11505175 1050.59232241 761.19028619 1050.59285098 757.26552063 C1050.59771587 720.49230756 1050.57509943 683.71915845 1050.53889475 646.94596526 C1050.50688656 614.29575072 1050.49485463 581.64559077 1050.50097656 548.99536133 C1050.50136341 546.89774927 1050.50174987 544.80013721 1050.50213593 542.70252515 C1050.50242295 541.14697081 1050.50242295 541.14697081 1050.50271577 539.55999113 C1050.50367015 534.33936168 1050.50458451 529.11873223 1050.50545502 523.89810276 C1050.50562881 522.86808241 1050.5058026 521.83806205 1050.50598167 520.77682896 C1050.51033854 493.46443218 1050.5003193 466.15204127 1050.48561716 438.83964866 C1050.48509702 437.86788452 1050.48457688 436.89612038 1050.48404097 435.89490884 C1050.48352163 434.9249498 1050.48300229 433.95499076 1050.4824672 432.95563902 C1050.48194946 431.98748931 1050.48143172 431.0193396 1050.48089829 430.02185202 C1050.47985021 428.07216526 1050.47879 426.1224785 1050.47771757 424.17279175 C1050.47034413 410.59467476 1050.46824743 397.0165661 1050.46971158 383.43844735 C1050.47155872 365.94373434 1050.46346468 348.4490727 1050.43807012 330.95437647 C1050.42492698 321.70810214 1050.41988159 312.4619098 1050.42670866 303.21562816 C1050.43042958 297.03394068 1050.42317511 290.85232781 1050.40711627 284.67066025 C1050.39827181 281.1526159 1050.39400277 277.63473976 1050.40304345 274.11669201 C1050.51291701 254.35448296 1050.51291701 254.35448296 1047 235 C1046.76862319 234.11951494 1046.53724639 233.23902989 1046.29885817 232.33186346 C1045.725211 230.21288081 1045.07721659 228.14215105 1044.375 226.0625 C1044.12484131 225.31943604 1043.87468262 224.57637207 1043.61694336 223.81079102 C1039.48748225 212.15862031 1033.10914485 201.32551658 1025 192 C1024.32453125 191.20464844 1023.6490625 190.40929687 1022.953125 189.58984375 C1013.82455834 179.11788873 1004.15133304 170.78009163 992 164 C990.58460938 163.19949219 990.58460938 163.19949219 989.140625 162.3828125 C983.28467849 159.26071947 977.26632543 156.89189627 971 154.75 C970.28884033 154.50362793 969.57768066 154.25725586 968.8449707 154.00341797 C958.60569832 150.65019241 948.35924256 149.70215074 937.63595963 149.74552441 C936.44504546 149.74231793 935.25413129 149.73911145 934.02712882 149.73580781 C930.74289647 149.72897186 927.45881207 149.73098799 924.17458247 149.73686353 C920.59336765 149.74105524 917.01217308 149.73361981 913.43096328 149.72771102 C907.16132547 149.71896684 900.89172033 149.71763056 894.62207794 149.72121429 C885.29857352 149.72652951 875.97510064 149.72041775 866.65159965 149.71213136 C849.02950912 149.69689976 831.40743297 149.69518544 813.78533724 149.69765439 C800.17591795 149.69948787 786.56650336 149.69772627 772.95708466 149.69342995 C771.00101655 149.69282754 769.04494845 149.69222634 767.08888035 149.69162634 C764.14117441 149.69071908 761.19346847 149.68981041 758.24576254 149.68889399 C730.84298093 149.68046564 703.44020109 149.67612794 676.03741837 149.68030071 C674.48820862 149.68053528 674.48820862 149.68053528 672.90770171 149.68077458 C667.67317453 149.68158035 662.43864736 149.68242612 657.20412019 149.68328788 C656.16454966 149.68345897 655.12497913 149.68363006 654.05390646 149.68380633 C651.95164276 149.68415299 649.84937906 149.68450151 647.74711535 149.68485192 C615.0381053 149.69020875 582.32912221 149.68227927 549.62011719 149.66381836 C512.86022145 149.64309536 476.10034242 149.63237623 439.34044051 149.63639385 C435.41968648 149.63678918 431.49893244 149.63715073 427.57817841 149.63749123 C426.61280984 149.63758196 425.64744128 149.63767269 424.65281912 149.63776617 C410.0892203 149.63893141 395.52563836 149.63228944 380.96204376 149.62167931 C364.39568692 149.6096223 347.82936722 149.60807412 331.26300982 149.62046947 C321.9969938 149.62709254 312.73106665 149.62547977 303.46505776 149.61188096 C297.26859249 149.60362217 291.07219363 149.60635255 284.87573373 149.61785623 C281.3498824 149.6240985 277.82420417 149.6257504 274.298363 149.61399289 C257.50922661 149.5693059 241.45158731 149.74457741 225.5 155.625 Z " fill="#FEFEFE" transform="translate(0,0)"/>
<path d="M0 0 C1.19091417 -0.00320648 2.38182833 -0.00641296 3.60883081 -0.0097166 C6.89306315 -0.01655254 10.17714756 -0.01453642 13.46137716 -0.00866088 C17.04259197 -0.00446916 20.62378654 -0.0119046 24.20499635 -0.01781338 C30.47463416 -0.02655756 36.7442393 -0.02789385 43.01388168 -0.02431011 C52.3373861 -0.0189949 61.66085899 -0.02510666 70.98435998 -0.03339304 C88.6064505 -0.04862464 106.22852665 -0.05033896 123.85062239 -0.04787002 C137.46004168 -0.04603653 151.06945627 -0.04779813 164.67887497 -0.05209446 C166.63494307 -0.05269686 168.59101118 -0.05329806 170.54707928 -0.05389806 C173.49478522 -0.05480533 176.44249115 -0.055714 179.39019709 -0.05663041 C206.7929787 -0.06505876 234.19575854 -0.06939647 261.59854126 -0.06522369 C262.63134775 -0.06506732 263.66415425 -0.06491094 264.72825791 -0.06474983 C269.96278509 -0.06394406 275.19731226 -0.06309829 280.43183944 -0.06223653 C281.99119523 -0.06197989 281.99119523 -0.06197989 283.58205317 -0.06171808 C285.68431687 -0.06137142 287.78658057 -0.06102289 289.88884427 -0.06067249 C322.59785432 -0.05531565 355.30683741 -0.06324513 388.01584244 -0.08170605 C424.77573817 -0.10242904 461.53561721 -0.11314817 498.29551911 -0.10913056 C502.21627315 -0.10873522 506.13702718 -0.10837367 510.05778122 -0.10803318 C511.02314978 -0.10794245 511.98851835 -0.10785172 512.9831405 -0.10775824 C527.54673932 -0.106593 542.11032126 -0.11323496 556.67391586 -0.1238451 C573.24027271 -0.13590211 589.8065924 -0.13745028 606.37294981 -0.12505493 C615.63896583 -0.11843187 624.90489298 -0.12004464 634.17090186 -0.13364345 C640.36736713 -0.14190224 646.563766 -0.13917185 652.76022589 -0.12766818 C656.28607722 -0.12142591 659.81175545 -0.119774 663.33759663 -0.13153151 C681.11228155 -0.17884171 697.47254446 0.22610049 714.19845963 6.87947559 C715.08195084 7.22502491 715.96544205 7.57057423 716.87570572 7.92659473 C744.43806724 19.07493799 767.38031359 41.24645057 779.05246353 68.67708302 C784.82385373 82.82411643 787.78963779 96.7057867 787.77297401 111.98651695 C787.77562584 113.16986432 787.77827767 114.35321169 787.78100985 115.57241806 C787.78735192 118.85873913 787.78923914 122.14502791 787.78923262 125.43135399 C787.79030455 129.00627143 787.79709841 132.58117881 787.80313933 136.15609068 C787.81420041 143.24754132 787.81985996 150.33898701 787.82384821 157.43044475 C787.82886247 165.92476531 787.83959089 174.4190763 787.85032994 182.9133912 C787.87594774 203.44679242 787.89099422 223.98019735 787.90384041 244.51360996 C787.90809664 251.31673448 787.91266241 258.11985874 787.91742373 264.92298293 C787.94268755 301.11382859 787.96473049 337.30467472 787.97715187 373.49552727 C787.98007309 381.87912529 787.98304063 390.2627233 787.98605728 398.6463213 C787.98642819 399.68785428 787.9867991 400.72938726 787.98718125 401.80248185 C787.99933025 435.55321753 788.03026396 469.30390099 788.07197881 503.05461216 C788.11480361 537.7668283 788.14139766 572.47901687 788.14662658 607.19126015 C788.14736698 612.09828717 788.14827766 617.00531415 788.14928436 621.91234112 C788.14947498 622.87803765 788.14966559 623.84373417 788.14986198 624.83869423 C788.15336985 640.35383933 788.17364146 655.86891883 788.200081 671.38403987 C788.22627949 686.99367596 788.23393034 702.6032366 788.22297971 718.21289153 C788.21702155 727.47546514 788.22481591 736.737782 788.25281055 746.00031654 C788.27016051 752.20231092 788.26903147 758.40413174 788.25344286 764.60613015 C788.24509377 768.13040458 788.24422186 771.65419188 788.26605432 775.1784196 C788.44204955 809.96273756 780.37079942 839.28785236 756.63595963 865.25447559 C755.95791275 866.00342091 755.27986588 866.75236622 754.58127213 867.52400684 C743.72266784 878.94581675 730.17148677 887.38196356 715.51095963 892.94197559 C714.80253922 893.21541798 714.0941188 893.48886036 713.36423111 893.77058887 C695.99587467 900.04739418 679.37843681 900.84077177 661.05213949 900.75594309 C657.46620518 900.74385957 653.88032657 900.75530068 650.29439199 900.76358473 C644.02586813 900.77489288 637.75748971 900.77151525 631.48897171 900.758214 C622.16747558 900.73848954 612.84608483 900.74186625 603.52457621 900.74971459 C587.83718035 900.76223628 572.14984477 900.75595444 556.46245575 900.73852634 C540.93097372 900.72127544 525.39951878 900.71148655 509.86802673 900.71186161 C508.9005628 900.7118769 507.93309886 900.71189219 506.93631784 900.71190795 C503.00883328 900.71198977 499.08134874 900.712121 495.15386419 900.71231957 C458.34064766 900.71413015 421.52747235 900.69426489 384.71427013 900.66346024 C352.01775047 900.63620122 319.32126008 900.6237383 286.62472916 900.62508106 C284.52434224 900.62516188 282.42395533 900.6252426 280.32356842 900.62532322 C278.7659681 900.62538427 278.7659681 900.62538427 277.1769011 900.62544656 C271.94957304 900.62564815 266.72224498 900.62582932 261.49491692 900.62598705 C260.46360989 900.62602048 259.43230286 900.62605391 258.3697441 900.62608835 C231.03183521 900.62681879 203.69392998 900.61774054 176.35602415 900.60533392 C175.38351408 900.60489338 174.41100402 900.60445284 173.40902396 900.60399894 C169.49851097 900.60222253 165.58799799 900.60044573 161.67748503 900.59861703 C148.08005297 900.592301 134.48262379 900.58927902 120.88519036 900.58839405 C103.36607701 900.58719949 85.84698779 900.5792027 68.32788475 900.55953114 C59.06546248 900.54930983 49.80307561 900.54447952 40.54064798 900.5475235 C34.35189055 900.54899428 28.16316751 900.54317071 21.9744211 900.53143589 C18.44982963 900.52494826 14.92531223 900.52154755 11.40071721 900.52695708 C7.59853826 900.5310947 3.79657369 900.52294377 -0.00558662 900.5117445 C-1.63514521 900.51791046 -1.63514521 900.51791046 -3.29762417 900.52420098 C-32.71950614 900.36588355 -59.26186171 887.00862449 -80.11404037 866.87947559 C-105.79175018 840.34335398 -113.20067532 808.99389681 -112.98777406 773.18159069 C-112.9721496 769.59487928 -112.98609215 766.00824847 -112.9959932 762.42153323 C-113.00933486 756.15782971 -113.00440715 749.89435626 -112.98698425 743.63066578 C-112.9611484 734.31643215 -112.96431347 725.00235973 -112.97302683 715.68810233 C-112.98684514 700.01138153 -112.97727127 684.33475746 -112.95382118 668.65805149 C-112.93062947 653.1410373 -112.91701301 637.62406593 -112.91630363 622.10703373 C-112.91625019 621.13984475 -112.91619674 620.17265578 -112.91614167 619.17615804 C-112.91595305 615.24967876 -112.91583149 611.32319948 -112.91579934 607.39672019 C-112.91545897 570.60926924 -112.88844378 533.82188332 -112.84760724 497.03445721 C-112.81145598 464.36413835 -112.7923423 431.69385728 -112.78957748 399.02351856 C-112.78948598 397.98396976 -112.78939448 396.94442096 -112.7893002 395.87337068 C-112.78902376 392.72838765 -112.78875227 389.58340463 -112.78848118 386.43842161 C-112.78811813 382.26100914 -112.78774473 378.08359667 -112.78736401 373.9061842 C-112.78727378 372.87537178 -112.78718355 371.84455936 -112.78709059 370.78251021 C-112.78410859 338.56900982 -112.76664436 306.35551643 -112.74667639 274.14202268 C-112.74006384 263.46037301 -112.73437294 252.77872446 -112.73148608 242.09707308 C-112.73122491 241.13601229 -112.73096373 240.17495149 -112.73069464 239.18476765 C-112.73043552 238.22572179 -112.73017639 237.26667593 -112.72990941 236.27856807 C-112.72491229 217.8084803 -112.71368811 199.3384204 -112.68860912 180.86834793 C-112.67621304 171.61479385 -112.6691605 162.3612737 -112.66995149 153.10771112 C-112.66991366 146.92500405 -112.66257844 140.7423332 -112.64932483 134.55964041 C-112.64196944 131.03857745 -112.63769026 127.51758752 -112.64220064 123.99651806 C-112.64536667 120.19818414 -112.63625878 116.4000675 -112.62410259 112.6017561 C-112.62792738 111.5165271 -112.63175217 110.43129809 -112.63569286 109.31318337 C-112.46914835 79.76497946 -98.95600456 52.91339643 -78.61404037 32.06697559 C-65.68995826 19.31149562 -50.22364301 10.71806403 -33.11404037 4.87947559 C-32.41826889 4.64067677 -31.72249741 4.40187794 -31.00564194 4.15584278 C-20.83775004 0.88031211 -10.63127694 -0.04300152 0 0 Z M-29.99294662 89.08260059 C-34.9860621 95.7003417 -37.48770508 102.96627403 -37.49054021 111.26261348 C-37.49329995 112.25461189 -37.49605969 113.2466103 -37.49890307 114.26866928 C-37.49684775 115.35325671 -37.49479243 116.43784414 -37.49267483 117.55529785 C-37.49442786 118.71629546 -37.4961809 119.87729306 -37.49798706 121.07347241 C-37.50184692 124.30635665 -37.50121377 127.53920459 -37.49870929 130.77208904 C-37.49707825 134.28542003 -37.50121536 137.79874494 -37.50461847 141.31207401 C-37.50977718 147.47320233 -37.51118885 153.6343228 -37.51016235 159.79545307 C-37.50863961 168.95739973 -37.51279435 178.11933768 -37.51803698 187.28128264 C-37.52771767 204.59598436 -37.5305215 221.91068313 -37.53109404 239.22538724 C-37.53155326 252.5957031 -37.53360995 265.96601779 -37.53679466 279.33633327 C-37.53769218 283.18249617 -37.538582 287.02865906 -37.53946954 290.87482196 C-37.53969059 291.83094536 -37.53991164 292.78706875 -37.54013938 293.77216559 C-37.54629534 320.67374047 -37.55023977 347.57531495 -37.5497961 374.47689056 C-37.54978053 375.49155044 -37.54976495 376.50621031 -37.5497489 377.55161745 C-37.54966579 382.6945365 -37.54956675 387.83745555 -37.54946419 392.9803746 C-37.54944424 394.00180754 -37.5494243 395.02324047 -37.54940375 396.07562593 C-37.54936331 398.14121365 -37.54932151 400.20680137 -37.54927836 402.27238909 C-37.5486656 434.40957023 -37.55617148 466.54674083 -37.56985092 498.68391895 C-37.58520743 534.77605881 -37.59381739 570.86819174 -37.5928877 606.96033508 C-37.59281307 610.80806975 -37.59276436 614.65580441 -37.59273338 618.50353909 C-37.59272173 619.45097358 -37.59271007 620.39840808 -37.59269807 621.37455272 C-37.59266728 636.62993879 -37.59905676 651.88531571 -37.60766565 667.14069906 C-37.61613755 682.47030502 -37.61713572 697.79989758 -37.61055633 713.12950458 C-37.6068575 722.23898264 -37.60870296 731.34842001 -37.61849867 740.45789376 C-37.6244894 746.54260276 -37.6232133 752.62728224 -37.61602817 758.71198987 C-37.61213898 762.17903062 -37.6113931 765.64599252 -37.61948552 769.11302777 C-37.62652244 772.85024042 -37.62126988 776.58724224 -37.61292934 780.32444763 C-37.61789752 781.39732923 -37.6228657 782.47021083 -37.62798443 783.57560399 C-37.56759019 796.34541779 -35.27812246 806.23456572 -26.06716537 815.58650684 C-16.86166672 823.48740457 -7.26115471 825.86241491 4.67951298 825.75784016 C6.43212896 825.7665608 6.43212896 825.7665608 8.22015134 825.77545762 C11.4460808 825.78748949 14.67139872 825.78176349 17.89730399 825.76834581 C21.41339309 825.75815736 24.92941074 825.77125508 28.44548959 825.78131914 C34.60227517 825.79574116 40.75892037 825.79534295 46.91571236 825.7851305 C56.071292 825.76998526 65.22675347 825.77774352 74.38233235 825.78996373 C90.736073 825.81101923 107.08975111 825.80920393 123.4434977 825.79764808 C137.75684139 825.78758379 152.07016218 825.78496 166.38350868 825.78973866 C167.33314104 825.7900442 168.28277339 825.79034974 169.26118249 825.79066454 C173.11613348 825.79190991 176.97108446 825.79318351 180.82603542 825.79450359 C216.98798255 825.80673922 253.14988987 825.79564687 289.31183085 825.774116 C321.42990487 825.75513823 353.54791545 825.75682828 385.66598892 825.77595997 C421.75748724 825.79738668 457.84895038 825.80586685 493.94045419 825.79351091 C497.78929054 825.79222807 501.6381269 825.7909767 505.48696327 825.78973866 C506.9084667 825.78926419 506.9084667 825.78926419 508.35868738 825.78878014 C522.65992048 825.78423317 536.96112813 825.78954601 551.26235771 825.79965687 C567.52834292 825.81109951 583.79425586 825.80822285 600.06023208 825.78653389 C609.1600512 825.77479998 618.25971376 825.77400566 627.35952878 825.78911859 C633.44270415 825.79810584 639.52575433 825.79247402 645.6089112 825.77509951 C649.0717466 825.76561066 652.53427161 825.76227526 655.99709693 825.77672344 C680.48013205 826.37662439 680.48013205 826.37662439 701.58127213 815.33260059 C708.79538284 808.03619964 712.75736296 799.60784464 712.76361012 789.23236299 C712.76662609 788.23724151 712.76964206 787.24212004 712.77274942 786.21684337 C712.77097995 785.1287614 712.76921048 784.04067943 712.76738739 782.91962528 C712.76944002 781.75495133 712.77149266 780.59027739 712.77360749 779.39031029 C712.77829927 776.14712326 712.77850171 772.90397124 712.7768299 769.66078237 C712.77609916 766.13629585 712.78112091 762.61181679 712.78540492 759.08733344 C712.7929882 752.09232718 712.79517815 745.09732855 712.79573398 738.10231861 C712.79664728 729.72567091 712.8033138 721.34903028 712.8100808 712.97238562 C712.82614595 692.72628708 712.83204447 672.4801893 712.83682955 652.23408554 C712.83916478 642.65870918 712.84276733 633.08333342 712.84652493 623.50795753 C712.85936031 590.73795426 712.87007997 557.96795133 712.87352753 525.19794559 C712.87374916 523.14059521 712.87397094 521.08324483 712.87419288 519.02589445 C712.87441352 516.96354639 712.874634 514.90119832 712.87485433 512.83885026 C712.87529688 508.70135037 712.875744 504.56385048 712.876194 500.42635059 C712.87630339 499.40049008 712.87641278 498.37462957 712.87652549 497.31768238 C712.88015713 464.04475071 712.8960813 430.77184082 712.91938436 397.49891749 C712.94397024 362.33014164 712.95769977 327.16137823 712.95889544 291.99259353 C712.9590669 288.13336197 712.95928233 284.27413042 712.95952988 280.41489887 C712.95961353 278.98949654 712.95961353 278.98949654 712.95969887 277.5352982 C712.96085034 262.23135732 712.9718804 246.92743875 712.98641693 231.62350541 C713.0007702 216.24686422 713.00402552 200.87025169 712.99597695 185.49360564 C712.99151532 176.35501427 712.99540262 167.21651531 713.01121546 158.07793604 C713.02094956 151.97509899 713.01980226 145.87232683 713.00977923 139.7694904 C713.00437587 136.29124613 713.00371336 132.81317959 713.01628795 129.33494988 C713.02731436 125.58736823 713.01993849 121.84025866 713.00789642 118.09269047 C713.01549162 117.01397316 713.02308681 115.93525586 713.03091216 114.82385015 C712.94677274 102.73893303 708.93833201 93.13608326 700.63595963 84.25447559 C687.90485144 72.87774062 669.90502578 74.67419873 653.9892126 74.74060538 C650.4698807 74.75082543 646.95061877 74.73768381 643.431297 74.72763205 C637.27355854 74.71323309 631.11596052 74.71359393 624.95821571 74.72382069 C615.80142787 74.73898674 606.64475792 74.73119706 597.4879708 74.71898746 C581.13230904 74.6979498 564.77670987 74.69973978 548.42104219 74.71130311 C534.10967585 74.72137132 519.79833243 74.72398933 505.48696327 74.71921253 C504.06217101 74.71875422 504.06217101 74.71875422 502.60859506 74.71828665 C498.7526843 74.71704127 494.89677356 74.71576767 491.04086283 74.7144476 C454.88401259 74.7022168 418.72720219 74.71329773 382.5703581 74.73483519 C350.45182309 74.75382164 318.33335151 74.75211464 286.21481705 74.73299122 C250.11893099 74.71157144 214.0230801 74.70307966 177.92718858 74.71544027 C174.07929529 74.71672313 170.23140199 74.71797449 166.38350868 74.71921253 C164.9623611 74.719687 164.9623611 74.719687 163.51250346 74.72017105 C149.20855118 74.72471996 134.90462434 74.71940174 120.60067558 74.70929432 C104.3379711 74.69786001 88.07533892 74.70071101 71.81264345 74.72241729 C62.71217816 74.7341634 53.61186945 74.7349278 44.51140823 74.7198326 C38.4317375 74.71086047 32.35219225 74.7164499 26.27254011 74.73385167 C22.80929862 74.74336119 19.34636807 74.74663255 15.88313643 74.73222774 C12.14829615 74.7200771 8.41430869 74.73252748 4.67951298 74.75111103 C3.61022667 74.74174637 2.54094037 74.7323817 1.43925145 74.72273326 C-11.30911875 74.84964876 -21.48784686 79.53730877 -29.99294662 89.08260059 Z " fill="#000000" transform="translate(262.36404037475586,149.7455244064331)"/>
<path d="M0 0 C9.48787511 5.65540513 15.64104263 13.83601259 18.58203125 24.5390625 C18.8828125 27.8359375 18.8828125 27.8359375 18.89453125 31.2890625 C18.91128906 32.41828125 18.92804688 33.5475 18.9453125 34.7109375 C18.07830963 43.84709681 14.80385964 50.45246605 9.45703125 57.7890625 C8.27991611 59.4586958 7.10414118 61.12927475 5.9296875 62.80078125 C5.06947998 64.01386963 5.06947998 64.01386963 4.19189453 65.25146484 C-13.1683546 89.92018404 -25.87313838 116.99907467 -35.41796875 145.5390625 C-35.6794873 146.30637695 -35.94100586 147.07369141 -36.21044922 147.86425781 C-41.60746895 163.88677719 -44.39231785 180.85972106 -46.48046875 197.6015625 C-48.01049939 208.59865769 -52.12925434 216.04861914 -60.41796875 223.5390625 C-69.05582512 229.69659951 -77.94647488 231.3826739 -88.41796875 230.5390625 C-98.43211276 228.80191507 -106.47650278 223.53573598 -112.9140625 215.75390625 C-124.08482069 199.302426 -118.86110348 178.60597075 -115.41796875 160.5390625 C-113.46087148 150.959268 -111.24222348 141.45426688 -108.60546875 132.0390625 C-105.64087139 120.19771099 -107.05917414 109.79295017 -112.703125 99.10546875 C-118.24379918 89.95332449 -125.69620747 84.96980098 -135.95703125 82.1953125 C-153.87809583 78.79718739 -169.29308674 85.05845814 -184.2734375 94.30078125 C-186.72356939 95.9718569 -189.07691715 97.71867957 -191.41796875 99.5390625 C-192.25070312 100.16941406 -193.0834375 100.79976563 -193.94140625 101.44921875 C-206.10756619 110.99305389 -217.03392804 122.26889328 -226.41796875 134.5390625 C-226.85641113 135.10109375 -227.29485352 135.663125 -227.74658203 136.2421875 C-240.83486415 153.02962437 -252.02630809 170.98312712 -262.41796875 189.5390625 C-262.77697266 190.17054199 -263.13597656 190.80202148 -263.50585938 191.45263672 C-297.88773295 252.08109351 -314.57124097 335.31503402 -296.875 403.69921875 C-292.20239809 420.5730346 -285.8710447 436.13306419 -274.41796875 449.5390625 C-273.80566406 450.27511719 -273.19335938 451.01117187 -272.5625 451.76953125 C-265.34705407 459.72344499 -254.65021764 465.46938783 -244.41796875 468.5390625 C-243.75796875 468.74144531 -243.09796875 468.94382812 -242.41796875 469.15234375 C-227.76750909 472.89126314 -211.18528658 470.66215931 -196.41796875 468.5390625 C-195.74797852 468.44786133 -195.07798828 468.35666016 -194.38769531 468.26269531 C-161.70663373 463.69919578 -129.18798812 450.90386872 -102.41796875 431.5390625 C-101.81952148 431.10899902 -101.22107422 430.67893555 -100.60449219 430.23583984 C-78.30804453 414.13782704 -58.5748278 395.38158131 -41.23046875 374.0390625 C-40.67439941 373.35980713 -40.11833008 372.68055176 -39.54541016 371.98071289 C-36.6843695 368.45603713 -33.92160595 364.8960742 -31.296875 361.19140625 C-24.64038097 351.81385266 -18.76106631 345.4509805 -7.79296875 341.1015625 C2.80350035 339.33548432 12.20809709 341.5146888 21.4765625 346.9609375 C26.8947769 351.02208521 32.24040946 357.80699602 33.58203125 364.5390625 C35.06366034 380.57769741 29.87004037 390.97936419 20.83203125 403.9140625 C19.98351262 405.14549427 19.13537322 406.37718742 18.28759766 407.60913086 C10.74000214 418.52099789 2.81350149 429.13347131 -5.41796875 439.5390625 C-5.88412598 440.12977539 -6.3502832 440.72048828 -6.83056641 441.32910156 C-12.09913826 447.97234911 -17.70864993 454.27467102 -23.41796875 460.5390625 C-24.53171875 461.79203125 -24.53171875 461.79203125 -25.66796875 463.0703125 C-33.10835358 471.44074543 -40.86494506 479.30538821 -49.41796875 486.5390625 C-50.289375 487.28800781 -51.16078125 488.03695313 -52.05859375 488.80859375 C-79.66839556 512.24739609 -110.52524637 529.17500539 -144.86572266 540.68164062 C-146.90517026 541.36678889 -148.93486919 542.08093212 -150.9609375 542.8046875 C-162.40559777 546.69679868 -174.53848211 548.48411786 -186.41796875 550.5390625 C-187.34883301 550.70857422 -188.27969727 550.87808594 -189.23876953 551.05273438 C-218.47941576 556.24293562 -251.72101646 556.54147712 -280.41796875 548.5390625 C-281.16127441 548.34151367 -281.90458008 548.14396484 -282.67041016 547.94042969 C-305.82092735 541.64592419 -329.2884677 527.20578486 -344.41796875 508.5390625 C-345.40796875 507.43111328 -345.40796875 507.43111328 -346.41796875 506.30078125 C-380.49775656 467.16988204 -389.66222746 410.0033264 -389.60546875 359.8515625 C-389.60519684 358.94821167 -389.60492493 358.04486084 -389.60464478 357.11413574 C-389.57416256 335.03135753 -388.04346577 313.33827838 -384.41796875 291.5390625 C-384.18086182 290.07871582 -384.18086182 290.07871582 -383.93896484 288.58886719 C-375.07561705 234.83092073 -358.25996588 181.58283369 -330.41796875 134.5390625 C-329.80598633 133.49468018 -329.80598633 133.49468018 -329.18164062 132.42919922 C-319.67164756 116.25858123 -309.32471244 100.52800744 -296.92578125 86.4140625 C-294.52441024 83.66108888 -292.24929116 80.83901944 -289.98046875 77.9765625 C-282.69105018 69.02808271 -274.32097535 60.87538097 -265.41796875 53.5390625 C-264.8883252 53.10094238 -264.35868164 52.66282227 -263.81298828 52.21142578 C-246.90784231 38.28224682 -228.93297501 26.45265654 -208.41796875 18.5390625 C-207.3196875 18.10980469 -206.22140625 17.68054688 -205.08984375 17.23828125 C-173.80255959 5.90891714 -140.48185959 5.23145121 -108.41796875 13.5390625 C-107.50885742 13.77431641 -106.59974609 14.00957031 -105.66308594 14.25195312 C-95.69608408 16.90933225 -86.03730773 20.20232009 -76.58984375 24.35498047 C-71.54641784 26.47116178 -66.88309333 27.48943304 -61.41796875 26.5390625 C-57.20177943 24.06627636 -54.70087 20.52574196 -51.85546875 16.6015625 C-50.37960073 14.57831882 -48.90055162 12.55739088 -47.41796875 10.5390625 C-46.77730469 9.66507812 -46.13664062 8.79109375 -45.4765625 7.890625 C-43.20599291 5.29691932 -40.96382709 3.67198542 -38.04296875 1.8515625 C-37.12773438 1.27019531 -36.2125 0.68882812 -35.26953125 0.08984375 C-24.57783046 -5.72468394 -10.82032441 -5.29914657 0 0 Z " fill="#010101" transform="translate(790.41796875,321.4609375)"/>
<path d="M0 0 C0 3 0 3 0 3 Z M-3 2 C-2.34 2.33 -1.68 2.66 -1 3 C-4.9419417 7.88049925 -9.11950075 12.0580583 -14 16 C-14.66 15.67 -15.32 15.34 -16 15 C-11.71 10.71 -7.42 6.42 -3 2 Z " fill="#282828" transform="translate(520,380)"/>
<path d="M0 0 C0 3.68553144 -0.8522582 5.03759752 -3 8 C-5.5625 9.875 -5.5625 9.875 -8 11 C-8.66 10.67 -9.32 10.34 -10 10 C-6.7 6.7 -3.4 3.4 0 0 Z " fill="#E8E8E8" transform="translate(586,431)"/>
<path d="M0 0 C0.598125 0.20625 1.19625 0.4125 1.8125 0.625 C0.1625 2.275 -1.4875 3.925 -3.1875 5.625 C-3.8475 4.305 -4.5075 2.985 -5.1875 1.625 C-2.1875 -0.375 -2.1875 -0.375 0 0 Z " fill="#EEEEEE" transform="translate(743.1875,700.375)"/>
<path d="M0 0 C0.99 0.33 1.98 0.66 3 1 C0.63707344 3.52588702 -0.66462511 4.88820837 -4 6 C-3.6875 4.125 -3.6875 4.125 -3 2 C-2.01 1.34 -1.02 0.68 0 0 Z " fill="#111111" transform="translate(1000,1027)"/>
<path d="M0 0 C2.97 0.495 2.97 0.495 6 1 C6.33 2.32 6.66 3.64 7 5 C4 5 4 5 1.8125 3.0625 C0 1 0 1 0 0 Z " fill="#090909" transform="translate(520,779)"/>
<path d="M0 0 C0.66 0.33 1.32 0.66 2 1 C1.01 2.485 1.01 2.485 0 4 C-0.99 3.67 -1.98 3.34 -3 3 C-2.01 2.01 -1.02 1.02 0 0 Z M-5 4 C-4.34 4.33 -3.68 4.66 -3 5 C-4.32 6.32 -5.64 7.64 -7 9 C-7.66 8.67 -8.32 8.34 -9 8 C-7.68 6.68 -6.36 5.36 -5 4 Z " fill="#DCDCDC" transform="translate(596,422)"/>
<path d="M0 0 C0 0.66 0 1.32 0 2 C-2.31 2.33 -4.62 2.66 -7 3 C-6.67 2.01 -6.34 1.02 -6 0 C-3.50907189 -1.24546405 -2.58919267 -0.7767578 0 0 Z " fill="#F0F0F0" transform="translate(585,338)"/>
<path d="M0 0 C0.66 0.33 1.32 0.66 2 1 C-3.625 5.875 -3.625 5.875 -7 7 C-5.66667905 3.00003714 -3.5042173 2.16217663 0 0 Z " fill="#E7E7E7" transform="translate(712,829)"/>
<path d="M0 0 C-1.04874998 2.62187494 -1.64931313 3.79371361 -4.125 5.25 C-4.74375 5.4975 -5.3625 5.745 -6 6 C-6 5.01 -6 4.02 -6 3 C-2.66666667 0 -2.66666667 0 0 0 Z " fill="#E4E4E4" transform="translate(733,815)"/>
<path d="M0 0 C2.475 0.99 2.475 0.99 5 2 C4.01 2.99 3.02 3.98 2 5 C0.68 4.34 -0.64 3.68 -2 3 C-1.34 2.01 -0.68 1.02 0 0 Z " fill="#191919" transform="translate(533,785)"/>
<path d="M0 0 C2.64 0 5.28 0 8 0 C7.34 1.32 6.68 2.64 6 4 C4.02 3.01 2.04 2.02 0 1 C0 0.67 0 0.34 0 0 Z " fill="#EBEBEB" transform="translate(527,781)"/>
<path d="M0 0 C1.32 0.66 2.64 1.32 4 2 C3.01 2.99 2.02 3.98 1 5 C0.01 4.67 -0.98 4.34 -2 4 C-1.34 2.68 -0.68 1.36 0 0 Z " fill="#EBEBEB" transform="translate(683,543)"/>
<path d="M0 0 C0.99 0.33 1.98 0.66 3 1 C2.01 1.495 2.01 1.495 1 2 C0.67 2.99 0.34 3.98 0 5 C-2.0625 6.1875 -2.0625 6.1875 -4 7 C-2.92598892 4.08482708 -2.22189824 2.22189824 0 0 Z " fill="#E5E5E5" transform="translate(555,467)"/>
<path d="M0 0 C1.04449911 3.13349732 0.93423645 3.98968256 0 7 C-1.32 7.33 -2.64 7.66 -4 8 C-2.87548273 5.0280615 -1.77706209 2.66559313 0 0 Z " fill="#171717" transform="translate(475,432)"/>
<path d="M0 0 C0.66 0 1.32 0 2 0 C3.32 2.31 4.64 4.62 6 7 C4.68 6.34 3.36 5.68 2 5 C2 4.34 2 3.68 2 3 C1.01 2.67 0.02 2.34 -1 2 C-0.67 1.34 -0.34 0.68 0 0 Z " fill="#171717" transform="translate(506,760)"/>
<path d="M0 0 C0.99 0.33 1.98 0.66 3 1 C3 1.99 3 2.98 3 4 C2.01 4.33 1.02 4.66 0 5 C-0.99 4.34 -1.98 3.68 -3 3 C-2.01 2.01 -1.02 1.02 0 0 Z " fill="#131313" transform="translate(753,691)"/>
<path d="M0 0 C0.99 0.99 1.98 1.98 3 3 C1.68 4.32 0.36 5.64 -1 7 C-2 4 -2 4 -1.0625 1.8125 C-0.5365625 0.9153125 -0.5365625 0.9153125 0 0 Z " fill="#0C0C0C" transform="translate(558,457)"/>
<path d="M0 0 C0.66 0.33 1.32 0.66 2 1 C0.515 3.475 0.515 3.475 -1 6 C-2.32 5.34 -3.64 4.68 -5 4 C-3.35 2.68 -1.7 1.36 0 0 Z " fill="#141414" transform="translate(536,366)"/>
<path d="M0 0 C0.66 0.33 1.32 0.66 2 1 C0.515 3.475 0.515 3.475 -1 6 C-1.99 5.01 -2.98 4.02 -4 3 C-2.68 2.01 -1.36 1.02 0 0 Z " fill="#1A1A1A" transform="translate(547,358)"/>
<path d="M0 0 C1.32 1.32 2.64 2.64 4 4 C2.02 4.99 2.02 4.99 0 6 C-0.66 5.01 -1.32 4.02 -2 3 C-1.34 2.01 -0.68 1.02 0 0 Z " fill="#E4E4E4" transform="translate(962,234)"/>
<path d="M0 0 C2.475 0.99 2.475 0.99 5 2 C5 2.99 5 3.98 5 5 C2.525 4.01 2.525 4.01 0 3 C0 2.01 0 1.02 0 0 Z " fill="#121212" transform="translate(997,168)"/>
</svg>
